<svg width="139" height="191" viewBox="0 0 139 191" fill="none" xmlns="http://www.w3.org/2000/svg">
<path fill-rule="evenodd" clip-rule="evenodd" d="M90.9997 58.5768C100.093 56.4935 106.947 47.4463 107 36.5816C116.129 34.4901 123 25.3802 123 14.4589C123 13.8392 122.978 13.2253 122.934 12.6182C130.02 11.8507 136.026 6.91028 139 0V171C139 182.046 130.046 191 119 191H20C8.95431 191 0 182.046 0 171V167.583C2.17867 168.502 4.53736 169.005 7 169.005C18.0081 169.005 26.939 158.967 26.9997 146.558C36.0933 144.475 42.9465 135.427 42.9997 124.563C52.0933 122.479 58.9465 113.432 58.9997 102.567C68.0933 100.484 74.9465 91.4368 74.9997 80.5721C84.0933 78.4888 90.9465 69.4415 90.9997 58.5768Z" fill="#EF71EF"/>
</svg>
